<svg xmlns="http://www.w3.org/2000/svg" width="30.719" height="28.262" viewBox="0 0 30.719 28.262"><g transform="translate(-0.001 1.332)"><path d="M26.5-1.332H4.224A4.228,4.228,0,0,0,0,2.891v13.63a4.228,4.228,0,0,0,4.208,4.223V26.93L13.1,20.745H26.5a4.228,4.228,0,0,0,4.223-4.223V2.891A4.228,4.228,0,0,0,26.5-1.332ZM28.92,16.522A2.426,2.426,0,0,1,26.5,18.945H12.533l-6.524,4.54v-4.54H4.224A2.426,2.426,0,0,1,1.8,16.522V2.891A2.426,2.426,0,0,1,4.224.468H26.5A2.426,2.426,0,0,1,28.92,2.891Zm0,0" transform="translate(0)" fill="#fff"/><path d="M171.293,131.172h14.276v1.8H171.293Zm0,0" transform="translate(-163.07 -126.144)" fill="#fff"/><path d="M171.293,211.172h14.276v1.8H171.293Zm0,0" transform="translate(-163.07 -202.304)" fill="#fff"/><path d="M171.293,291.172h14.276v1.8H171.293Zm0,0" transform="translate(-163.07 -278.464)" fill="#fff"/></g></svg>