<svg xmlns="http://www.w3.org/2000/svg" width="24.97" height="19.02" viewBox="0 0 24.97 19.02"><g transform="translate(0 -61)"><g transform="translate(1.254 61)"><path d="M47.242,61H26.661a2.169,2.169,0,0,0-.94.22L36.9,72.4l2.506-2.409h0l8.773-8.773A2.169,2.169,0,0,0,47.242,61Z" transform="translate(-25.721 -61)" fill="#fff"/></g><g transform="translate(16.495 62.255)"><path d="M346.469,86.728l-8.256,8.255,8.256,8.256a2.169,2.169,0,0,0,.22-.94V87.668A2.169,2.169,0,0,0,346.469,86.728Z" transform="translate(-338.213 -86.728)" fill="#fff"/></g><g transform="translate(0 62.254)"><path d="M.22,86.721a2.169,2.169,0,0,0-.22.94v14.631a2.17,2.17,0,0,0,.22.94l8.256-8.255Z" transform="translate(0 -86.721)" fill="#fff"/></g><g transform="translate(1.254 71.545)"><path d="M39.92,277.211l-2.507,2.409a.731.731,0,0,1-1.034,0l-2.409-2.409-8.256,8.255a2.169,2.169,0,0,0,.941.22H47.235a2.169,2.169,0,0,0,.94-.22Z" transform="translate(-25.714 -277.211)" fill="#fff"/></g></g></svg>