<svg xmlns="http://www.w3.org/2000/svg" width="34.514" height="34.514" viewBox="0 0 34.514 34.514"><g transform="translate(-84.323 -8085.909)"><rect width="22" height="31" transform="translate(93 8089)" fill="#fff"/><path d="M29.865,0H4.653A4.651,4.651,0,0,0,0,4.651V29.863a4.651,4.651,0,0,0,4.651,4.651H17.087l.021-12.333H13.9a.756.756,0,0,1-.756-.753l-.015-3.976a.756.756,0,0,1,.756-.759h3.2V12.851c0-4.458,2.723-6.885,6.7-6.885H27.05a.756.756,0,0,1,.756.756v3.352a.756.756,0,0,1-.756.756h-2c-2.163,0-2.581,1.028-2.581,2.536v3.326h4.752a.756.756,0,0,1,.751.845L27.5,21.513a.756.756,0,0,1-.751.667h-4.26l-.021,12.333h7.4a4.651,4.651,0,0,0,4.651-4.651V4.651A4.651,4.651,0,0,0,29.865,0Z" transform="translate(84.321 8085.909)" fill="#475993"/></g></svg>