<svg xmlns="http://www.w3.org/2000/svg" xmlns:xlink="http://www.w3.org/1999/xlink" width="34.514" height="34.514" viewBox="0 0 34.514 34.514"><defs><linearGradient id="a" x1="0.5" y1="0.008" x2="0.5" y2="0.998" gradientUnits="objectBoundingBox"><stop offset="0" stop-color="#e09b3d"/><stop offset="0.3" stop-color="#c74c4d"/><stop offset="0.6" stop-color="#c21975"/><stop offset="1" stop-color="#7024c4"/></linearGradient><linearGradient id="b" y1="-0.451" y2="1.462" xlink:href="#a"/><linearGradient id="c" y1="-1.396" y2="6.586" xlink:href="#a"/></defs><g transform="translate(-141.45 -8085.909)"><rect width="28" height="28" transform="translate(145 8089)" fill="#fff"/><g transform="translate(141.45 8085.909)"><path d="M24.232,0H10.282A10.293,10.293,0,0,0,0,10.282v13.95A10.294,10.294,0,0,0,10.282,34.514h13.95A10.294,10.294,0,0,0,34.514,24.232V10.282A10.294,10.294,0,0,0,24.232,0Zm6.81,24.232a6.81,6.81,0,0,1-6.81,6.81H10.282a6.81,6.81,0,0,1-6.81-6.81V10.282a6.81,6.81,0,0,1,6.81-6.81h13.95a6.81,6.81,0,0,1,6.81,6.81v13.95Z" fill="url(#a)"/><path d="M141.926,133a8.926,8.926,0,1,0,8.927,8.926A8.937,8.937,0,0,0,141.926,133Zm0,14.381a5.454,5.454,0,1,1,5.454-5.454A5.454,5.454,0,0,1,141.926,147.381Z" transform="translate(-124.67 -124.67)" fill="url(#b)"/><circle cx="2.139" cy="2.139" r="2.139" transform="translate(24.062 6.258)" fill="url(#c)"/></g></g></svg>