<svg xmlns="http://www.w3.org/2000/svg" width="34.514" height="34.514" viewBox="0 0 34.514 34.514"><g transform="translate(-198.542 -8085.909)"><rect width="28" height="28" transform="translate(202 8089)" fill="#fff"/><path d="M31.392,0H3.122A3.122,3.122,0,0,0,0,3.122v28.27a3.122,3.122,0,0,0,3.122,3.122h28.27a3.122,3.122,0,0,0,3.122-3.122V3.122A3.122,3.122,0,0,0,31.392,0ZM10.68,29.8a.909.909,0,0,1-.909.909H5.9A.909.909,0,0,1,5,29.8V13.589A.909.909,0,0,1,5.9,12.68H9.771a.909.909,0,0,1,.909.909ZM7.838,11.152a3.674,3.674,0,1,1,3.674-3.674A3.674,3.674,0,0,1,7.838,11.152ZM30.892,29.875a.835.835,0,0,1-.835.835h-4.15a.835.835,0,0,1-.835-.835v-7.6c0-1.134.333-4.971-2.965-4.971-2.558,0-3.077,2.626-3.181,3.8v8.771a.835.835,0,0,1-.835.835H14.076a.835.835,0,0,1-.835-.835V13.516a.835.835,0,0,1,.835-.835H18.09a.835.835,0,0,1,.835.835V14.93c.948-1.423,2.358-2.522,5.359-2.522,6.645,0,6.607,6.209,6.607,9.62v7.847Z" transform="translate(198.542 8085.909)" fill="#0077b7"/></g></svg>