<svg xmlns="http://www.w3.org/2000/svg" width="25.209" height="25.209" viewBox="0 0 25.209 25.209"><g transform="translate(0 0)"><path d="M12.608,25.209a12.511,12.511,0,0,1-6.934-2.083L.829,24.675,2.4,19.992A12.47,12.47,0,0,1,0,12.605,12.618,12.618,0,0,1,12.6,0h.006a12.6,12.6,0,0,1,0,25.209ZM7.859,5.765a1.828,1.828,0,0,0-1.289.453l-.033.034A4.031,4.031,0,0,0,5.282,9.285a6.957,6.957,0,0,0,1.481,3.78l.016.021c.014.018.04.056.078.111a14.959,14.959,0,0,0,6.2,5.432,10.726,10.726,0,0,0,3.692,1.032,3.285,3.285,0,0,0,.722-.084A3.56,3.56,0,0,0,19.942,17.8a3.155,3.155,0,0,0,.216-1.749c-.072-.125-.24-.206-.495-.328l-.21-.1c-.021-.011-2.133-1.061-2.511-1.193a.915.915,0,0,0-.32-.064.7.7,0,0,0-.584.339l-.145.2-.005.007a12.042,12.042,0,0,1-.835,1.094.709.709,0,0,1-.526.213.956.956,0,0,1-.362-.073L14.05,16.1a9.255,9.255,0,0,1-2.84-1.775,11.1,11.1,0,0,1-2.045-2.541.583.583,0,0,1,.141-.776L9.312,11c.109-.136.217-.25.322-.361.074-.078.15-.159.226-.247l.037-.043a2.01,2.01,0,0,0,.37-.536.756.756,0,0,0-.053-.682c-.062-.13-.438-1.042-.769-1.846-.141-.342-.272-.66-.364-.88-.239-.574-.418-.606-.8-.623l-.044,0C8.125,5.771,8,5.765,7.859,5.765Z" transform="translate(0 -0.001)" fill="#fff"/></g></svg>