<svg xmlns="http://www.w3.org/2000/svg" width="34.685" height="34.685" viewBox="0 0 34.685 34.685"><path d="M17.347,0h-.009A17.332,17.332,0,0,0,3.3,27.507L1.14,33.95l6.666-2.131A17.339,17.339,0,1,0,17.347,0Z" transform="translate(0 0)" fill="#4caf50"/><path d="M127.435,133.646c-.418,1.181-2.079,2.161-3.4,2.447-.906.193-2.09.347-6.074-1.305-5.1-2.111-8.378-7.29-8.634-7.626a9.9,9.9,0,0,1-2.059-5.231,5.536,5.536,0,0,1,1.773-4.221,2.52,2.52,0,0,1,1.773-.622c.215,0,.408.011.581.02.509.022.765.052,1.1.856.418,1.008,1.437,3.5,1.559,3.752a1.032,1.032,0,0,1,.074.939,3,3,0,0,1-.561.8c-.256.295-.5.52-.754.837-.234.275-.5.57-.2,1.08a15.392,15.392,0,0,0,2.814,3.5,12.75,12.75,0,0,0,4.067,2.508,1.1,1.1,0,0,0,1.223-.193,20.977,20.977,0,0,0,1.355-1.795.968.968,0,0,1,1.244-.377c.468.163,2.946,1.387,3.455,1.641s.845.377.969.592A4.319,4.319,0,0,1,127.435,133.646Z" transform="translate(-99.998 -109.156)" fill="#fafafa"/></svg>